<svg xmlns="http://www.w3.org/2000/svg" width="227.652" height="66.281" viewBox="0 0 227.652 66.281"><g id="Grupo_41286" data-name="Grupo 41286" transform="translate(6738.756 697)"><path id="Sustracci&#xF3;n_7" data-name="Sustracci&#xF3;n 7" d="M33.141,66.281a33.387,33.387,0,0,1-6.679-.673,32.96,32.96,0,0,1-11.85-4.987A33.237,33.237,0,0,1,2.6,46.04,32.973,32.973,0,0,1,.673,39.82a33.464,33.464,0,0,1,0-13.358A32.959,32.959,0,0,1,5.66,14.611,33.237,33.237,0,0,1,20.241,2.6,32.974,32.974,0,0,1,26.462.673a33.465,33.465,0,0,1,13.358,0A32.959,32.959,0,0,1,51.67,5.66,33.237,33.237,0,0,1,63.677,20.241a32.973,32.973,0,0,1,1.931,6.221,33.463,33.463,0,0,1,0,13.358,32.959,32.959,0,0,1-4.987,11.85A33.238,33.238,0,0,1,46.041,63.677a32.973,32.973,0,0,1-6.221,1.931A33.385,33.385,0,0,1,33.141,66.281Zm0-48.308a.339.339,0,0,0-.281.148l-.218.323c-3.032,4.479-5.427,8.016-7.124,11.206a26.787,26.787,0,0,0-1.961,4.52,13.818,13.818,0,0,0-.688,4.177,10.1,10.1,0,0,0,3.008,7.2,10.33,10.33,0,0,0,14.53,0,10.1,10.1,0,0,0,3.007-7.2,13.819,13.819,0,0,0-.688-4.177,26.787,26.787,0,0,0-1.961-4.519c-1.7-3.19-4.092-6.727-7.123-11.205l-.219-.324A.339.339,0,0,0,33.141,17.973Z" transform="translate(-6738.756 -697)" fill="#fff"></path><g id="Grupo_41285" data-name="Grupo 41285" transform="translate(0 7.501)"><path id="Trazado_107391" data-name="Trazado 107391" d="M192.838,97.608h1.254V103.6h3.751v1.142h-5Z" transform="translate(-6858.975 -753.382)" fill="#fff" stroke="rgba(255,255,255,0)" stroke-width="1"></path><path id="Trazado_107392" data-name="Trazado 107392" d="M227.484,97.488h1.162l3.14,7.187H230.46l-.724-1.723h-3.374l-.734,1.723h-1.284Zm1.794,4.353-1.234-2.855-1.223,2.855Z" transform="translate(-6877.122 -753.313)" fill="#fff" stroke="rgba(255,255,255,0)" stroke-width="1"></path><path id="Trazado_107393" data-name="Trazado 107393" d="M262.843,97.608h3.2a2.575,2.575,0,0,1,1.865.632,1.6,1.6,0,0,1,.479,1.183v.02a1.7,1.7,0,0,1-1.019,1.59,1.75,1.75,0,0,1,1.417,1.733v.02c0,1.274-1.05,1.957-2.64,1.957h-3.3Zm4.292,2.018c0-.561-.449-.907-1.254-.907h-1.8v1.9h1.713c.805,0,1.345-.316,1.345-.969Zm-1.07,2.049h-1.988v1.957h2.08c.857,0,1.376-.336,1.376-.979v-.02c0-.6-.479-.958-1.468-.958" transform="translate(-6899.295 -753.382)" fill="#fff" stroke="rgba(255,255,255,0)" stroke-width="1"></path><path id="Trazado_107394" data-name="Trazado 107394" d="M297.521,101.031v-.02a3.731,3.731,0,0,1,7.462-.02v.02a3.731,3.731,0,0,1-7.462.02m6.147,0v-.02a2.445,2.445,0,0,0-2.426-2.538,2.411,2.411,0,0,0-2.405,2.518v.02a2.436,2.436,0,0,0,2.426,2.528,2.4,2.4,0,0,0,2.406-2.507" transform="translate(-6919.269 -753.216)" fill="#fff" stroke="rgba(255,255,255,0)" stroke-width="1"></path><path id="Trazado_107395" data-name="Trazado 107395" d="M336.765,97.608h3.181a2.876,2.876,0,0,1,2.059.713,2.159,2.159,0,0,1,.591,1.54v.02a2.143,2.143,0,0,1-1.692,2.161l1.926,2.7h-1.488l-1.753-2.487h-1.57v2.487h-1.254Zm3.089,3.537c.9,0,1.468-.469,1.468-1.192v-.02c0-.765-.55-1.183-1.478-1.183h-1.825v2.4Z" transform="translate(-6941.872 -753.382)" fill="#fff" stroke="rgba(255,255,255,0)" stroke-width="1"></path><path id="Trazado_107396" data-name="Trazado 107396" d="M373.91,97.488h1.162l3.14,7.187h-1.325l-.724-1.723h-3.374l-.734,1.723H370.77Zm1.794,4.353-1.233-2.855-1.223,2.855Z" transform="translate(-6961.458 -753.313)" fill="#fff" stroke="rgba(255,255,255,0)" stroke-width="1"></path><path id="Trazado_107397" data-name="Trazado 107397" d="M408.167,98.77H405.9V97.608h5.79V98.77h-2.263v5.973h-1.264Z" transform="translate(-6981.694 -753.382)" fill="#fff" stroke="rgba(255,255,255,0)" stroke-width="1"></path><path id="Trazado_107398" data-name="Trazado 107398" d="M439.093,101.031v-.02a3.731,3.731,0,0,1,7.462-.02v.02a3.731,3.731,0,0,1-7.462.02m6.147,0v-.02a2.445,2.445,0,0,0-2.426-2.538,2.411,2.411,0,0,0-2.405,2.518v.02a2.436,2.436,0,0,0,2.426,2.528,2.4,2.4,0,0,0,2.406-2.507" transform="translate(-7000.81 -753.216)" fill="#fff" stroke="rgba(255,255,255,0)" stroke-width="1"></path><path id="Trazado_107399" data-name="Trazado 107399" d="M478.337,97.608h3.181a2.875,2.875,0,0,1,2.059.713,2.159,2.159,0,0,1,.591,1.54v.02a2.143,2.143,0,0,1-1.692,2.161l1.926,2.7h-1.488l-1.753-2.487h-1.57v2.487h-1.254Zm3.089,3.537c.9,0,1.468-.469,1.468-1.192v-.02c0-.765-.55-1.183-1.478-1.183h-1.825v2.4Z" transform="translate(-7023.413 -753.382)" fill="#fff" stroke="rgba(255,255,255,0)" stroke-width="1"></path><rect id="Rect&#xE1;ngulo_22614" data-name="Rect&#xE1;ngulo 22614" width="1.254" height="7.136" transform="translate(-6529.973 -655.774)" fill="#fff" stroke="rgba(255,255,255,0)" stroke-width="1"></rect><path id="Trazado_107400" data-name="Trazado 107400" d="M538.729,101.031v-.02a3.731,3.731,0,0,1,7.462-.02v.02a3.731,3.731,0,0,1-7.462.02m6.147,0v-.02a2.445,2.445,0,0,0-2.426-2.538,2.411,2.411,0,0,0-2.406,2.518v.02a2.436,2.436,0,0,0,2.426,2.528,2.4,2.4,0,0,0,2.406-2.507" transform="translate(-7058.196 -753.216)" fill="#fff" stroke="rgba(255,255,255,0)" stroke-width="1"></path><path id="Trazado_107403" data-name="Trazado 107403" d="M207.877,6.978h3.3a1.5,1.5,0,0,1,1.377.9l12.922,29.578a1.5,1.5,0,0,1-1.377,2.1h-2.713A1.5,1.5,0,0,1,220,38.64l-2.894-6.89h-15.3l-2.938,6.9a1.5,1.5,0,0,1-1.383.914h-2.534a1.5,1.5,0,0,1-1.377-2.1L206.5,7.879a1.5,1.5,0,0,1,1.377-.9m7.15,19.735-5.592-12.941-5.546,12.941Z" transform="translate(-6859.328 -701.182)" fill="#fff" stroke="rgba(255,255,255,0)" stroke-width="1"></path><path id="Trazado_107404" data-name="Trazado 107404" d="M297.313,9.026a1.5,1.5,0,0,1,1.5-1.5h13.009c3.7,0,6.609,1.016,8.458,2.865a7.247,7.247,0,0,1,2.172,5.361v.092a7.705,7.705,0,0,1-4.622,7.21c3.79,1.294,6.425,3.466,6.425,7.857V31c0,5.777-4.761,8.874-11.97,8.874H298.816a1.5,1.5,0,0,1-1.5-1.5Zm19.457,7.648c0-2.542-2.033-4.114-5.685-4.114h-8.18v8.6h7.765c3.651,0,6.1-1.433,6.1-4.39Zm-4.853,9.289h-9.012v8.874h9.428c3.882,0,6.239-1.525,6.239-4.437v-.093c0-2.727-2.172-4.344-6.655-4.344" transform="translate(-6919.149 -701.496)" fill="#fff" stroke="rgba(255,255,255,0)" stroke-width="1"></path><path id="Trazado_107405" data-name="Trazado 107405" d="M398.843,6.978h3.3a1.5,1.5,0,0,1,1.377.9l12.922,29.578a1.5,1.5,0,0,1-1.377,2.1h-2.713a1.5,1.5,0,0,1-1.386-.921l-2.894-6.89h-15.3l-2.938,6.9a1.5,1.5,0,0,1-1.383.914h-2.534a1.5,1.5,0,0,1-1.377-2.1L397.466,7.879a1.5,1.5,0,0,1,1.377-.9m7.15,19.735L400.4,13.772l-5.546,12.941Z" transform="translate(-6969.318 -701.182)" fill="#fff" stroke="rgba(255,255,255,0)" stroke-width="1"></path><path id="Trazado_107406" data-name="Trazado 107406" d="M488.279,9.025a1.5,1.5,0,0,1,1.5-1.5h10.56c10.168,0,17.193,6.979,17.193,16.084V23.7c0,9.105-7.025,16.177-17.193,16.177h-10.56a1.5,1.5,0,0,1-1.5-1.5Zm5.685,3.673v22h6.378c6.794,0,11.231-4.576,11.231-10.907V23.7c0-6.331-4.437-11-11.231-11Z" transform="translate(-7029.139 -701.496)" fill="#fff" stroke="rgba(255,255,255,0)" stroke-width="1"></path></g></g></svg>